<svg xmlns="http://www.w3.org/2000/svg" xml:space="preserve" fill-rule="evenodd" stroke-linejoin="round" stroke-miterlimit="2" clip-rule="evenodd" version="1.1" viewBox="0 0 86400 86400"><path d="M85751 17575c0-9342-7584-16926-16926-16926l-51250-6C8233 648 648 8233 648 17575v51250c0 9342 7585 16927 16927 16927h51250c9342 0 16927-7585 16927-16927v-51250Z" fill="#48556c"/><path d="M21888 34776v40292h10869V34776h14815v-9138h-40500v9138h14816Zm39759-7995v6008c972 0 1974 29 3004 86 1030 57 1988 229 2875 515a4636 4636 0 01 2189 1460c572 686 858 1630 858 2831 0 1603-615 2904-1845 3906-1230 1000-2704 1502-4420 1502-2175 0-3791-687-4850-2060-1058-1374-1645-2976-1760-4807H49460c-115 4463 1200 7868 3947 10214 2747 2346 6437 3519 11072 3519 2000 0 3900-258 5702-773 1802-515 3376-1301 4720-2360a11850 11850 0 00 3220-3905c800-1545 1200-3347 1200-5407 0-2003-615-3748-1845-5236-1230-1487-2932-2432-5107-2832v-172c1889-457 3306-1373 4250-2746 944-1374 1416-2918 1416-4635 0-1781-386-3325-1159-4642a10320 10320 0 00-3090-3303C72500 13059 71041 12400 69410 11972a19648 19648 0 00-5020-644c-4292 0-7654 1173-10086 3520-2430 2345-3705 5520-3819 9526h8240c-59-1717 428-3176 1458-4377 1030-1202 2460-1803 4291-1803 1373 0 2604 400 3690 1202 1091 800 1633 1918 1633 3348 0 1030-270 1817-815 2360-544 544-1230 945-2060 1202a9990 9990 0 01-2660 430c-945 28-1817 42-2618 42Z" fill="#fdb812" fill-rule="nonzero"/></svg>
